# xmcd
#
# Track frame offsets: 
#        150
#        16505
#        26093
#        42100
#        53780
#        69343
#        84410
#        94523
#        101755
#        115818
#        126775
#        143105
#        156235
#        169160
#        181520
#
# Disc length: 2658 seconds
#
# Revision: 1
# Processed by: cddbd v1.5.2PL0 Copyright (c) Steve Scherf et al.
# Submitted via: ExactAudioCopy v0.99pb5
#
DISCID=b20a600f
DTITLE=Eels - Daisies Of The Galaxy
DYEAR=1999
DGENRE=Blues
TTITLE0=Grace Kelly Blues
TTITLE1=Packing Blankets
TTITLE2=The Sound Of Fear
TTITLE3=I Like Birds
TTITLE4=Daisies Of The Galaxy
TTITLE5=Flyswatter
TTITLE6=It's A Motherfucker
TTITLE7=Estate Sale
TTITLE8=Tiger In My Tank
TTITLE9=A Daisy Through Concrete
TTITLE10=Jeannie's Diary
TTITLE11=Wooden Nickels
TTITLE12=Something Is Sacred
TTITLE13=Selective Memory
TTITLE14=Mr. E's Beautiful Blues
EXTD=
EXTT0=
EXTT1=
EXTT2=
EXTT3=
EXTT4=
EXTT5=
EXTT6=
EXTT7=
EXTT8=
EXTT9=
EXTT10=
EXTT11=
EXTT12=
EXTT13=
EXTT14=
PLAYORDER=
